<mxfile host="app.diagrams.net" modified="2023-10-29T10:58:47.035Z" agent="Mozilla/5.0 (Windows NT 10.0; Win64; x64) AppleWebKit/537.36 (KHTML, like Gecko) Chrome/117.0.0.0 Safari/537.36" etag="tP5Nxo_MyCI3XZrK2TPc" version="22.0.8" type="device">
  <diagram name="Page-1" id="2YBvvXClWsGukQMizWep">
    <mxGraphModel dx="977" dy="577" grid="1" gridSize="10" guides="1" tooltips="1" connect="1" arrows="1" fold="1" page="1" pageScale="1" pageWidth="850" pageHeight="1100" math="0" shadow="0">
      <root>
        <mxCell id="0" />
        <mxCell id="1" parent="0" />
        <mxCell id="bUbZ-e89j6tAC8CVxlZ--16" value="Microcontroller" style="shape=umlLifeline;perimeter=lifelinePerimeter;whiteSpace=wrap;html=1;container=1;dropTarget=0;collapsible=0;recursiveResize=0;outlineConnect=0;portConstraint=eastwest;newEdgeStyle={&quot;edgeStyle&quot;:&quot;elbowEdgeStyle&quot;,&quot;elbow&quot;:&quot;vertical&quot;,&quot;curved&quot;:0,&quot;rounded&quot;:0};" parent="1" vertex="1">
          <mxGeometry x="375" y="80" width="100" height="420" as="geometry" />
        </mxCell>
        <mxCell id="0u1kKGDJF54m8RZjEG2Y-54" value="" style="html=1;points=[[0,0,0,0,5],[0,1,0,0,-5],[1,0,0,0,5],[1,1,0,0,-5]];perimeter=orthogonalPerimeter;outlineConnect=0;targetShapes=umlLifeline;portConstraint=eastwest;newEdgeStyle={&quot;curved&quot;:0,&quot;rounded&quot;:0};" parent="bUbZ-e89j6tAC8CVxlZ--16" vertex="1">
          <mxGeometry x="45" y="235" width="10" height="50" as="geometry" />
        </mxCell>
        <mxCell id="bUbZ-e89j6tAC8CVxlZ--27" value="" style="shape=umlLifeline;perimeter=lifelinePerimeter;whiteSpace=wrap;html=1;container=1;dropTarget=0;collapsible=0;recursiveResize=0;outlineConnect=0;portConstraint=eastwest;newEdgeStyle={&quot;curved&quot;:0,&quot;rounded&quot;:0};participant=umlActor;" parent="1" vertex="1">
          <mxGeometry x="130" y="80" width="20" height="420" as="geometry" />
        </mxCell>
        <mxCell id="0u1kKGDJF54m8RZjEG2Y-16" value="" style="html=1;points=[[0,0,0,0,5],[0,1,0,0,-5],[1,0,0,0,5],[1,1,0,0,-5]];perimeter=orthogonalPerimeter;outlineConnect=0;targetShapes=umlLifeline;portConstraint=eastwest;newEdgeStyle={&quot;curved&quot;:0,&quot;rounded&quot;:0};" parent="bUbZ-e89j6tAC8CVxlZ--27" vertex="1">
          <mxGeometry x="5" y="80" width="10" height="80" as="geometry" />
        </mxCell>
        <mxCell id="0u1kKGDJF54m8RZjEG2Y-50" value="" style="html=1;points=[[0,0,0,0,5],[0,1,0,0,-5],[1,0,0,0,5],[1,1,0,0,-5]];perimeter=orthogonalPerimeter;outlineConnect=0;targetShapes=umlLifeline;portConstraint=eastwest;newEdgeStyle={&quot;curved&quot;:0,&quot;rounded&quot;:0};" parent="bUbZ-e89j6tAC8CVxlZ--27" vertex="1">
          <mxGeometry x="5" y="240" width="10" height="40" as="geometry" />
        </mxCell>
        <mxCell id="Ur5XrVrVseQt80Zj_p8K-10" value="" style="html=1;points=[[0,0,0,0,5],[0,1,0,0,-5],[1,0,0,0,5],[1,1,0,0,-5]];perimeter=orthogonalPerimeter;outlineConnect=0;targetShapes=umlLifeline;portConstraint=eastwest;newEdgeStyle={&quot;curved&quot;:0,&quot;rounded&quot;:0};" parent="bUbZ-e89j6tAC8CVxlZ--27" vertex="1">
          <mxGeometry x="5" y="320" width="10" height="40" as="geometry" />
        </mxCell>
        <mxCell id="Ur5XrVrVseQt80Zj_p8K-11" value="Display &lt;br&gt;User&lt;br&gt;&amp;nbsp;pool" style="html=1;align=left;spacingLeft=2;endArrow=block;rounded=0;edgeStyle=orthogonalEdgeStyle;curved=0;rounded=0;" parent="bUbZ-e89j6tAC8CVxlZ--27" target="Ur5XrVrVseQt80Zj_p8K-10" edge="1">
          <mxGeometry x="0.0118" relative="1" as="geometry">
            <mxPoint x="10" y="300" as="sourcePoint" />
            <Array as="points">
              <mxPoint x="40" y="330" />
            </Array>
            <mxPoint as="offset" />
          </mxGeometry>
        </mxCell>
        <mxCell id="bUbZ-e89j6tAC8CVxlZ--50" value="" style="shape=umlDestroy;whiteSpace=wrap;html=1;strokeWidth=3;targetShapes=umlLifeline;" parent="1" vertex="1">
          <mxGeometry x="125" y="510" width="30" height="30" as="geometry" />
        </mxCell>
        <mxCell id="bUbZ-e89j6tAC8CVxlZ--52" value="" style="shape=umlDestroy;whiteSpace=wrap;html=1;strokeWidth=3;targetShapes=umlLifeline;" parent="1" vertex="1">
          <mxGeometry x="410.5" y="510" width="30" height="30" as="geometry" />
        </mxCell>
        <mxCell id="Ke5L-bLkSkWgQZBR-M11-30" value="" style="shape=umlLifeline;perimeter=lifelinePerimeter;whiteSpace=wrap;html=1;container=1;dropTarget=0;collapsible=0;recursiveResize=0;outlineConnect=0;portConstraint=eastwest;newEdgeStyle={&quot;curved&quot;:0,&quot;rounded&quot;:0};participant=umlActor;" parent="1" vertex="1">
          <mxGeometry x="705" y="80" width="20" height="420" as="geometry" />
        </mxCell>
        <mxCell id="0u1kKGDJF54m8RZjEG2Y-21" value="" style="html=1;points=[[0,0,0,0,5],[0,1,0,0,-5],[1,0,0,0,5],[1,1,0,0,-5]];perimeter=orthogonalPerimeter;outlineConnect=0;targetShapes=umlLifeline;portConstraint=eastwest;newEdgeStyle={&quot;curved&quot;:0,&quot;rounded&quot;:0};" parent="Ke5L-bLkSkWgQZBR-M11-30" vertex="1">
          <mxGeometry x="5" y="90" width="10" height="80" as="geometry" />
        </mxCell>
        <mxCell id="0u1kKGDJF54m8RZjEG2Y-66" value="" style="html=1;points=[[0,0,0,0,5],[0,1,0,0,-5],[1,0,0,0,5],[1,1,0,0,-5]];perimeter=orthogonalPerimeter;outlineConnect=0;targetShapes=umlLifeline;portConstraint=eastwest;newEdgeStyle={&quot;curved&quot;:0,&quot;rounded&quot;:0};" parent="Ke5L-bLkSkWgQZBR-M11-30" vertex="1">
          <mxGeometry x="5" y="250" width="10" height="40" as="geometry" />
        </mxCell>
        <mxCell id="Ur5XrVrVseQt80Zj_p8K-16" value="" style="html=1;points=[[0,0,0,0,5],[0,1,0,0,-5],[1,0,0,0,5],[1,1,0,0,-5]];perimeter=orthogonalPerimeter;outlineConnect=0;targetShapes=umlLifeline;portConstraint=eastwest;newEdgeStyle={&quot;curved&quot;:0,&quot;rounded&quot;:0};" parent="Ke5L-bLkSkWgQZBR-M11-30" vertex="1">
          <mxGeometry x="5" y="330" width="10" height="40" as="geometry" />
        </mxCell>
        <mxCell id="Ur5XrVrVseQt80Zj_p8K-17" value="Display&lt;br style=&quot;border-color: var(--border-color);&quot;&gt;User&lt;br style=&quot;border-color: var(--border-color);&quot;&gt;&amp;nbsp;pool" style="html=1;align=left;spacingLeft=2;endArrow=block;rounded=0;edgeStyle=orthogonalEdgeStyle;curved=0;rounded=0;" parent="Ke5L-bLkSkWgQZBR-M11-30" target="Ur5XrVrVseQt80Zj_p8K-16" edge="1">
          <mxGeometry x="0.0118" relative="1" as="geometry">
            <mxPoint x="10" y="310" as="sourcePoint" />
            <Array as="points">
              <mxPoint x="40" y="340" />
            </Array>
            <mxPoint as="offset" />
          </mxGeometry>
        </mxCell>
        <mxCell id="Ke5L-bLkSkWgQZBR-M11-32" value="" style="shape=umlDestroy;whiteSpace=wrap;html=1;strokeWidth=3;targetShapes=umlLifeline;" parent="1" vertex="1">
          <mxGeometry x="700" y="510" width="30" height="30" as="geometry" />
        </mxCell>
        <mxCell id="Ke5L-bLkSkWgQZBR-M11-58" value="Connection" style="shape=umlFrame;whiteSpace=wrap;html=1;pointerEvents=0;width=100;height=30;" parent="1" vertex="1">
          <mxGeometry x="25" y="150" width="801" height="120" as="geometry" />
        </mxCell>
        <mxCell id="0u1kKGDJF54m8RZjEG2Y-17" value="" style="html=1;points=[[0,0,0,0,5],[0,1,0,0,-5],[1,0,0,0,5],[1,1,0,0,-5]];perimeter=orthogonalPerimeter;outlineConnect=0;targetShapes=umlLifeline;portConstraint=eastwest;newEdgeStyle={&quot;curved&quot;:0,&quot;rounded&quot;:0};" parent="1" vertex="1">
          <mxGeometry x="420" y="170" width="10" height="80" as="geometry" />
        </mxCell>
        <mxCell id="0u1kKGDJF54m8RZjEG2Y-19" value="" style="endArrow=blockThin;endFill=1;endSize=12;html=1;rounded=0;" parent="1" edge="1">
          <mxGeometry width="160" relative="1" as="geometry">
            <mxPoint x="150" y="190" as="sourcePoint" />
            <mxPoint x="420" y="190" as="targetPoint" />
          </mxGeometry>
        </mxCell>
        <mxCell id="0u1kKGDJF54m8RZjEG2Y-27" value="&amp;nbsp;Connnecting User to Network&amp;nbsp;&amp;nbsp;" style="edgeLabel;html=1;align=center;verticalAlign=middle;resizable=0;points=[];" parent="0u1kKGDJF54m8RZjEG2Y-19" vertex="1" connectable="0">
          <mxGeometry x="-0.037" y="-3" relative="1" as="geometry">
            <mxPoint y="-3" as="offset" />
          </mxGeometry>
        </mxCell>
        <mxCell id="0u1kKGDJF54m8RZjEG2Y-23" value="" style="endArrow=blockThin;endFill=1;endSize=12;html=1;rounded=0;" parent="1" source="0u1kKGDJF54m8RZjEG2Y-21" target="0u1kKGDJF54m8RZjEG2Y-17" edge="1">
          <mxGeometry width="160" relative="1" as="geometry">
            <mxPoint x="340" y="510" as="sourcePoint" />
            <mxPoint x="500" y="510" as="targetPoint" />
          </mxGeometry>
        </mxCell>
        <mxCell id="0u1kKGDJF54m8RZjEG2Y-28" value="&amp;nbsp;Connnecting User to Network&amp;nbsp;&amp;nbsp;" style="edgeLabel;html=1;align=center;verticalAlign=middle;resizable=0;points=[];" parent="0u1kKGDJF54m8RZjEG2Y-23" vertex="1" connectable="0">
          <mxGeometry x="-0.0071" y="-3" relative="1" as="geometry">
            <mxPoint x="5" y="3" as="offset" />
          </mxGeometry>
        </mxCell>
        <mxCell id="0u1kKGDJF54m8RZjEG2Y-24" value="" style="endArrow=open;dashed=1;endFill=0;endSize=12;html=1;rounded=0;" parent="1" target="0u1kKGDJF54m8RZjEG2Y-21" edge="1">
          <mxGeometry width="160" relative="1" as="geometry">
            <mxPoint x="430" y="240" as="sourcePoint" />
            <mxPoint x="590" y="240" as="targetPoint" />
          </mxGeometry>
        </mxCell>
        <mxCell id="0u1kKGDJF54m8RZjEG2Y-32" value="&amp;nbsp;User is Connected to Network&amp;nbsp;" style="edgeLabel;html=1;align=center;verticalAlign=middle;resizable=0;points=[];" parent="0u1kKGDJF54m8RZjEG2Y-24" vertex="1" connectable="0">
          <mxGeometry x="0.0429" y="-2" relative="1" as="geometry">
            <mxPoint y="-3" as="offset" />
          </mxGeometry>
        </mxCell>
        <mxCell id="0u1kKGDJF54m8RZjEG2Y-34" value="" style="endArrow=open;dashed=1;endFill=0;endSize=12;html=1;rounded=0;startArrow=none;startFill=0;" parent="1" edge="1">
          <mxGeometry width="160" relative="1" as="geometry">
            <mxPoint x="420" y="220" as="sourcePoint" />
            <mxPoint x="149.5" y="220" as="targetPoint" />
            <Array as="points">
              <mxPoint x="310" y="220" />
            </Array>
          </mxGeometry>
        </mxCell>
        <mxCell id="0u1kKGDJF54m8RZjEG2Y-35" value="&amp;nbsp;User is Connected to Network&amp;nbsp;" style="edgeLabel;html=1;align=center;verticalAlign=middle;resizable=0;points=[];" parent="0u1kKGDJF54m8RZjEG2Y-34" vertex="1" connectable="0">
          <mxGeometry x="0.0429" y="-2" relative="1" as="geometry">
            <mxPoint as="offset" />
          </mxGeometry>
        </mxCell>
        <mxCell id="0u1kKGDJF54m8RZjEG2Y-71" value="Share User Pool" style="shape=umlFrame;whiteSpace=wrap;html=1;pointerEvents=0;width=100;height=30;" parent="1" vertex="1">
          <mxGeometry x="25" y="300" width="801" height="170" as="geometry" />
        </mxCell>
        <mxCell id="Ur5XrVrVseQt80Zj_p8K-4" value="" style="endArrow=open;dashed=1;endFill=0;endSize=12;html=1;rounded=0;startArrow=none;startFill=0;" parent="1" edge="1">
          <mxGeometry width="160" relative="1" as="geometry">
            <mxPoint x="420.5" y="340" as="sourcePoint" />
            <mxPoint x="150" y="340" as="targetPoint" />
            <Array as="points" />
          </mxGeometry>
        </mxCell>
        <mxCell id="Ur5XrVrVseQt80Zj_p8K-5" value="&amp;nbsp; Send User Pool&amp;nbsp;" style="edgeLabel;html=1;align=center;verticalAlign=middle;resizable=0;points=[];" parent="Ur5XrVrVseQt80Zj_p8K-4" vertex="1" connectable="0">
          <mxGeometry x="0.0429" y="-2" relative="1" as="geometry">
            <mxPoint as="offset" />
          </mxGeometry>
        </mxCell>
        <mxCell id="Ur5XrVrVseQt80Zj_p8K-6" value="" style="endArrow=open;dashed=1;endFill=0;endSize=12;html=1;rounded=0;" parent="1" edge="1">
          <mxGeometry width="160" relative="1" as="geometry">
            <mxPoint x="430" y="350" as="sourcePoint" />
            <mxPoint x="710" y="350" as="targetPoint" />
          </mxGeometry>
        </mxCell>
        <mxCell id="Ur5XrVrVseQt80Zj_p8K-7" value="&amp;nbsp; Send User Pool&amp;nbsp;" style="edgeLabel;html=1;align=center;verticalAlign=middle;resizable=0;points=[];" parent="Ur5XrVrVseQt80Zj_p8K-6" vertex="1" connectable="0">
          <mxGeometry x="0.0429" y="-2" relative="1" as="geometry">
            <mxPoint y="-3" as="offset" />
          </mxGeometry>
        </mxCell>
        <mxCell id="AtSbOhEF3sVJ-47ksK09-1" value="&lt;b style=&quot;border-color: var(--border-color);&quot;&gt;User A&lt;/b&gt;" style="text;html=1;strokeColor=none;fillColor=none;align=center;verticalAlign=middle;whiteSpace=wrap;rounded=0;" vertex="1" parent="1">
          <mxGeometry x="110" y="40" width="60" height="30" as="geometry" />
        </mxCell>
        <mxCell id="AtSbOhEF3sVJ-47ksK09-2" value="&lt;b style=&quot;border-color: var(--border-color);&quot;&gt;User B&lt;/b&gt;" style="text;html=1;strokeColor=none;fillColor=none;align=center;verticalAlign=middle;whiteSpace=wrap;rounded=0;" vertex="1" parent="1">
          <mxGeometry x="685" y="40" width="60" height="30" as="geometry" />
        </mxCell>
      </root>
    </mxGraphModel>
  </diagram>
</mxfile>
